<svg xmlns="http://www.w3.org/2000/svg" viewBox="0 0 64 64" role="img" aria-label="MV Miami Rental">
  <defs>
    <linearGradient id="g" x1="0%" y1="0%" x2="100%" y2="100%">
      <stop offset="0%" stop-color="#192A30"/>
      <stop offset="100%" stop-color="#e68404"/>
    </linearGradient>
  </defs>
  <rect width="64" height="64" rx="14" fill="url(#g)"/>
  <path fill="#fff" d="M14 36c0-1.1.9-2 2-2h3.2l2.4-5.2A3 3 0 0 1 24 27h16a3 3 0 0 1 2.7 1.8L45 34h3c1.1 0 2 .9 2 2v3c0 1.7-1.3 3-3 3h-2.1a5 5 0 0 1-9.8 0H25.9a5 5 0 0 1-9.8 0H14c-1.1 0-2-.9-2-2v-2zm8.2-7 1.8 4h22l-1.8-4H22.2z"/>
  <circle cx="24" cy="42" r="3.2" fill="#e68404"/>
  <circle cx="40" cy="42" r="3.2" fill="#e68404"/>
</svg>
